Coordinates
version=1
nRows=41
nColumns=38
inDegrees=no

Units are S.I. units (second, meters, Newtons, ...)
If the header above contains a line with 'inDegrees', this indicates whether rotational values are in degrees (yes) or radians (no).

endheader
time	pelvis_tilt	pelvis_list	pelvis_rotation	pelvis_tx	pelvis_ty	pelvis_tz	hip_flexion_r	hip_adduction_r	hip_rotation_r	knee_angle_r	ankle_angle_r	subtalar_angle_r	mtp_angle_r	hip_flexion_l	hip_adduction_l	hip_rotation_l	knee_angle_l	ankle_angle_l	subtalar_angle_l	mtp_angle_l	lumbar_extension	lumbar_bending	lumbar_rotation	arm_flex_r	arm_add_r	arm_rot_r	elbow_flex_r	pro_sup_r	wrist_flex_r	wrist_dev_r	arm_flex_l	arm_add_l	arm_rot_l	elbow_flex_l	pro_sup_l	wrist_flex_l	wrist_dev_l
140	-0.508607	1.37077	-0.755166	0.718521	1.86589	0.94166	-0.247363	0.0268692	-0.393158	0.267848	-0.33997	0	0	-0.274579	-0.241483	-0.335925	0.0584515	-0.352979	0	0	-0.212501	0.252634	-0.278002	0.139517	-0.226777	0.765571	0.242688	1.5708	0	0	0.242315	-0.431906	1.25046	0.729433	0.545042	0	0
140.01	-0.527614	1.36733	-0.738447	0.718222	1.86562	0.94186	-0.243798	0.0335716	-0.386091	0.273715	-0.337611	0	0	-0.261749	-0.255462	-0.364266	0.0953621	-0.338569	0	0	-0.209303	0.256759	-0.286662	0.121357	-0.262971	0.776468	0.324983	1.5708	0	0	0.230084	-0.429993	1.22064	0.729371	0.557365	0	0
140.02	-0.510655	1.36559	-0.752347	0.718602	1.86553	0.942332	-0.247541	0.0309253	-0.396968	0.277167	-0.338561	0	0	-0.266216	-0.253754	-0.360553	0.0919722	-0.338391	0	0	-0.211259	0.253113	-0.293365	0.117371	-0.270731	0.775494	0.345228	1.5708	0	0	0.228615	-0.43281	1.21481	0.735954	0.565306	0	0
140.03	-0.54048	1.36595	-0.725452	0.717804	1.86512	0.942205	-0.241632	0.0352362	-0.391956	0.278253	-0.339214	0	0	-0.262163	-0.25831	-0.359316	0.0922882	-0.337979	0	0	-0.205891	0.254002	-0.29334	0.112893	-0.277114	0.776664	0.361164	1.5708	0	0	0.225879	-0.433174	1.2075	0.739286	0.572807	0	0
140.04	-0.388901	1.33657	-0.891616	0.715293	1.8631	0.947258	-0.299869	0.0337594	-0.381222	0.25473	-0.355758	0	0	-0.301265	-0.254849	-0.385764	0.132689	-0.328912	0	0	-0.256394	0.240362	-0.277524	0.112608	-0.275367	0.776676	0.371964	1.5708	0	0	0.228287	-0.447339	1.20409	0.757034	0.580015	0	0
140.05	-0.416881	1.33699	-0.867086	0.714302	1.86276	0.947061	-0.295334	0.0404119	-0.370432	0.251833	-0.358255	0	0	-0.29743	-0.260399	-0.385779	0.133572	-0.327395	0	0	-0.251537	0.242929	-0.274631	0.109712	-0.277021	0.77689	0.376601	1.5708	0	0	0.227742	-0.446878	1.20037	0.759053	0.582185	0	0
140.06	-0.426891	1.33714	-0.85984	0.713694	1.86235	0.947017	-0.2946	0.0428194	-0.364605	0.248981	-0.359824	0	0	-0.296679	-0.262193	-0.387337	0.134316	-0.326085	0	0	-0.248844	0.24303	-0.272089	0.107096	-0.277421	0.77578	0.377092	1.5708	0	0	0.227981	-0.445685	1.19837	0.759923	0.584711	0	0
140.07	-0.434246	1.33709	-0.854543	0.713769	1.86131	0.94719	-0.30058	0.0463494	-0.354393	0.233342	-0.368488	0	0	-0.29843	-0.262861	-0.391739	0.132529	-0.326415	0	0	-0.239796	0.245281	-0.263411	0.0965506	-0.279064	0.757807	0.375567	1.5708	0	0	0.2169	-0.427466	1.22993	0.727189	1.05676	0	0
140.08	-0.416378	1.33898	-0.873889	0.714877	1.85995	0.946941	-0.303347	0.0376608	-0.367534	0.237662	-0.365852	0	0	-0.303908	-0.255761	-0.399611	0.128834	-0.327751	0	0	-0.242479	0.241117	-0.279371	0.107427	-0.27531	0.77961	0.36562	1.5708	0	0	0.212304	-0.438997	1.16777	0.75861	0.610048	0	0
140.09	-0.535369	1.37443	-0.738989	0.719759	1.86001	0.941915	-0.247038	0.0208781	-0.406587	0.272896	-0.345512	0	0	-0.271776	-0.243749	-0.375265	0.0790703	-0.342574	0	0	-0.183856	0.244815	-0.297555	0.0967399	-0.283437	0.769539	0.361971	1.5708	0	0	0.211844	-0.415887	1.17991	0.737023	0.601695	0	0
140.1	-0.494022	1.36594	-0.778335	0.716855	1.86217	0.942845	-0.258322	0.0286478	-0.390693	0.26581	-0.342351	0	0	-0.276065	-0.249552	-0.36236	0.0902091	-0.339962	0	0	-0.201335	0.242703	-0.293866	0.10685	-0.265412	0.764244	0.337715	1.56871	0	0	0.226099	-0.426951	1.19688	0.745672	0.600284	0	0
140.11	-0.556732	1.37168	-0.721403	0.715403	1.86191	0.941781	-0.245069	0.0369095	-0.367289	0.258366	-0.342026	0	0	-0.26358	-0.254321	-0.360242	0.089162	-0.33658	0	0	-0.181003	0.248295	-0.280243	0.103257	-0.255623	0.745472	0.311723	1.5708	0	0	0.218399	-0.407686	1.23922	0.707253	1.05822	0	0
140.12	-0.568135	1.37211	-0.713717	0.714027	1.86213	0.941455	-0.243349	0.0409797	-0.351841	0.253285	-0.340429	0	0	-0.260898	-0.256546	-0.359736	0.0918692	-0.333916	0	0	-0.180042	0.250189	-0.278308	0.112159	-0.241946	0.74488	0.283853	1.56872	0	0	0.217439	-0.407701	1.23582	0.703732	1.08193	0	0
140.13	-0.566377	1.37366	-0.717292	0.713445	1.86213	0.941096	-0.243074	0.0406462	-0.345228	0.250929	-0.338379	0	0	-0.259448	-0.255258	-0.360894	0.094169	-0.331528	0	0	-0.179512	0.250767	-0.279135	0.121117	-0.22882	0.741966	0.255525	1.56311	0	0	0.216047	-0.407615	1.23375	0.700881	1.10308	0	0
140.14	-0.436498	1.34948	-0.865929	0.71027	1.86002	0.944957	-0.293774	0.0421012	-0.319259	0.223559	-0.354029	0	0	-0.29031	-0.253959	-0.394137	0.137347	-0.316921	0	0	-0.223934	0.24531	-0.271175	0.140903	-0.206254	0.745745	0.218337	1.55474	0	0	0.22923	-0.423873	1.206	0.73271	0.613758	0	0
140.15	-0.583641	1.37967	-0.706922	0.7124	1.86145	0.939983	-0.23677	0.0393932	-0.329764	0.249037	-0.331707	0	0	-0.254657	-0.252163	-0.367979	0.0955163	-0.327467	0	0	-0.169153	0.254527	-0.276851	0.135971	-0.203436	0.713464	0.195779	1.55022	0	0	0.219645	-0.396319	1.246	0.686209	1.06201	0	0
140.16	-0.572833	1.38017	-0.717993	0.712349	1.86159	0.939856	-0.236692	0.0414699	-0.324199	0.249105	-0.327037	0	0	-0.256604	-0.249618	-0.366408	0.0936503	-0.327565	0	0	-0.17219	0.256932	-0.2852	0.149596	-0.188549	0.698149	0.164569	1.56892	0	0	0.233368	-0.398743	1.22046	0.700387	0.615879	0	0
140.17	-0.579607	1.38461	-0.714073	0.711753	1.86154	0.939205	-0.231745	0.04042	-0.318692	0.249185	-0.323116	0	0	-0.253468	-0.246521	-0.365195	0.09253	-0.326579	0	0	-0.167435	0.256751	-0.280792	0.153244	-0.180279	0.687091	0.143659	1.56766	0	0	0.238233	-0.392788	1.23247	0.690856	0.609392	0	0
140.18	-0.586966	1.3867	-0.708696	0.711453	1.86141	0.938841	-0.230314	0.0411069	-0.311149	0.245855	-0.320696	0	0	-0.25185	-0.24545	-0.365529	0.0918404	-0.325852	0	0	-0.162829	0.259274	-0.279096	0.158432	-0.171865	0.671816	0.120593	1.56894	0	0	0.24158	-0.385426	1.24495	0.679039	0.602074	0	0
140.19	-0.592664	1.38794	-0.704727	0.711182	1.86128	0.938578	-0.230532	0.0424085	-0.30332	0.24064	-0.320044	0	0	-0.250881	-0.244958	-0.366354	0.0917012	-0.324751	0	0	-0.156202	0.261056	-0.26656	0.157341	-0.164871	0.621573	0.0982237	1.5708	0	0	0.234917	-0.370095	1.29213	0.644494	1.01455	0	0
140.2	-0.592223	1.38798	-0.706702	0.710971	1.86117	0.938452	-0.232774	0.0437088	-0.29667	0.235134	-0.319976	0	0	-0.252127	-0.244446	-0.367062	0.0904051	-0.324492	0	0	-0.156329	0.263924	-0.267791	0.163327	-0.158954	0.619266	0.0815225	1.5708	0	0	0.233519	-0.364856	1.28922	0.634954	1.01911	0	0
140.21	-0.649785	1.39657	-0.653461	0.710711	1.86031	0.938034	-0.220464	0.0447054	-0.284293	0.23	-0.321973	0	0	-0.234881	-0.24573	-0.373618	0.10167	-0.320368	0	0	-0.148006	0.28465	-0.33878	0.216567	-0.130588	0.672358	0.027866	1.5708	0	0	0.100309	-0.324522	0.886425	0.601138	1.31309	0	0
140.22	-0.660736	1.39799	-0.645131	0.710444	1.85996	0.937714	-0.219827	0.0456388	-0.27796	0.225809	-0.321504	0	0	-0.235661	-0.244332	-0.372908	0.0964086	-0.320885	0	0	-0.145999	0.28773	-0.342042	0.222141	-0.126664	0.668811	0.0163704	1.5708	0	0	0.0970828	-0.318023	0.875571	0.590417	1.31935	0	0
140.23	-0.404872	1.34471	-0.893626	0.710355	1.86354	0.939916	-0.304143	0.05011	-0.292276	0.210883	-0.324021	0	0	-0.316324	-0.248422	-0.386118	0.0902641	-0.317203	0	0	-0.316453	0.225438	-0.257673	0.177389	-0.160141	0.592357	0.157731	1.5708	0	0	0.0076615	-0.375467	0.551835	0.855984	1.5708	0	0
140.24	-0.404896	1.3453	-0.893649	0.710281	1.86358	0.939669	-0.305567	0.0508378	-0.28954	0.206041	-0.324491	0	0	-0.315178	-0.248485	-0.385486	0.091699	-0.316139	0	0	-0.312845	0.221276	-0.242503	0.169453	-0.161979	0.582921	0.153748	1.5708	0	0	0.0239816	-0.370944	0.572656	0.842245	1.5708	0	0
140.25	-0.338668	1.33601	-0.955179	0.709571	1.86422	0.940291	-0.327574	0.0475936	-0.296391	0.196057	-0.326112	0	0	-0.331116	-0.243661	-0.38122	0.0915089	-0.316934	0	0	-0.322774	0.247872	-0.349992	0.246809	-0.115597	0.673709	0.0736168	1.5708	0	0	-0.0529795	-0.369111	0.456673	0.851093	1.5708	0	0
140.26	-0.510131	1.38146	-0.791303	0.711899	1.85986	0.937473	-0.26792	0.0417657	-0.292568	0.198439	-0.327384	0	0	-0.274002	-0.237278	-0.384698	0.0895866	-0.318827	0	0	-0.204601	0.248588	-0.268817	0.176875	-0.15116	0.61436	0.067421	1.5708	0	0	0.0232824	-0.183178	0.273637	0.621388	1.5708	0	0
140.27	-0.502769	1.39129	-0.799078	0.715408	1.85656	0.936438	-0.269302	0.0273388	-0.318565	0.194859	-0.327631	0	0	-0.275397	-0.223744	-0.405276	0.082477	-0.32028	0	0	-0.18767	0.242136	-0.272507	0.168114	-0.157725	0.607765	0.0639471	1.5708	0	0	0.0201344	-0.172181	0.274003	0.606508	1.5708	0	0
140.28	-0.499834	1.39787	-0.803168	0.717232	1.85464	0.935693	-0.269551	0.0188699	-0.331671	0.191637	-0.327749	0	0	-0.276026	-0.215233	-0.416133	0.0769951	-0.321916	0	0	-0.177124	0.237483	-0.273425	0.163386	-0.161005	0.605694	0.0596915	1.5708	0	0	0.0190161	-0.165671	0.274858	0.595787	1.5708	0	0
140.29	-0.484399	1.39883	-0.820915	0.716992	1.85435	0.935709	-0.272782	0.0163194	-0.331142	0.187337	-0.327974	0	0	-0.277495	-0.212364	-0.419502	0.0788284	-0.322601	0	0	-0.178284	0.233698	-0.269167	0.162816	-0.160499	0.605447	0.0559989	1.5708	0	0	0.0232333	-0.164453	0.278849	0.587357	1.5708	0	0
140.3	-0.484165	1.3994	-0.822745	0.716419	1.85453	0.935457	-0.273972	0.0172093	-0.3266	0.181801	-0.328388	0	0	-0.27687	-0.212283	-0.41929	0.0797155	-0.322011	0	0	-0.178865	0.232003	-0.265043	0.163326	-0.159467	0.605791	0.0525859	1.5708	0	0	0.0280912	-0.163927	0.282904	0.58004	1.5708	0	0
140.31	-0.501013	1.40171	-0.806809	0.716072	1.85461	0.934798	-0.271703	0.0190373	-0.322513	0.176621	-0.328536	0	0	-0.274498	-0.212205	-0.416339	0.0757675	-0.321257	0	0	-0.175109	0.231719	-0.262295	0.163659	-0.158767	0.606605	0.0488327	1.5708	0	0	0.032182	-0.161637	0.284157	0.571439	1.5708	0	0
140.32	-0.50446	1.40334	-0.805384	0.715705	1.85452	0.934478	-0.27188	0.019054	-0.319281	0.17151	-0.329024	0	0	-0.273388	-0.211381	-0.417377	0.0758755	-0.320315	0	0	-0.173476	0.230092	-0.258283	0.164132	-0.157805	0.608445	0.0448133	1.5708	0	0	0.0362246	-0.158623	0.283495	0.561818	1.5708	0	0
140.33	-0.506755	1.40461	-0.805232	0.715316	1.85443	0.93422	-0.272544	0.0190856	-0.315812	0.166206	-0.329871	0	0	-0.272579	-0.21078	-0.419071	0.0765312	-0.319237	0	0	-0.171955	0.228735	-0.253894	0.165037	-0.156707	0.611491	0.040257	1.5708	0	0	0.0401988	-0.154855	0.281053	0.552313	1.5708	0	0
140.34	-0.509635	1.40586	-0.804205	0.714949	1.85439	0.933962	-0.273054	0.0192546	-0.312152	0.161076	-0.330847	0	0	-0.272031	-0.209993	-0.419634	0.0759749	-0.31843	0	0	-0.169937	0.227686	-0.249667	0.166273	-0.155789	0.615955	0.0358995	1.5708	0	0	0.044513	-0.14997	0.276327	0.54165	1.5708	0	0
140.35	-0.511934	1.407	-0.803481	0.714622	1.85439	0.933718	-0.273874	0.0195186	-0.308045	0.155541	-0.332061	0	0	-0.271514	-0.209141	-0.419327	0.0753054	-0.317754	0	0	-0.167888	0.226667	-0.245499	0.167943	-0.155143	0.621749	0.0318412	1.5708	0	0	0.0494128	-0.143846	0.268965	0.52966	1.5708	0	0
140.36	-0.498426	1.40646	-0.819914	0.714039	1.85438	0.9339	-0.27769	0.0189084	-0.303262	0.150205	-0.333749	0	0	-0.273291	-0.207901	-0.422226	0.0780621	-0.317008	0	0	-0.169547	0.224598	-0.23969	0.170642	-0.153997	0.629051	0.0273792	1.5708	0	0	0.0549817	-0.137327	0.259316	0.517346	1.5708	0	0
140.37	-0.515224	1.40644	-0.807113	0.7128	1.85481	0.933713	-0.275611	0.022397	-0.293756	0.14642	-0.334821	0	0	-0.271112	-0.21033	-0.421526	0.0793194	-0.315516	0	0	-0.168078	0.226334	-0.235286	0.176674	-0.151221	0.638966	0.0202227	1.5708	0	0	0.0612644	-0.136884	0.268367	0.506311	1.5708	0	0
140.38	-0.509995	1.39416	-0.816809	0.706848	1.85932	0.934689	-0.278065	0.0396183	-0.257662	0.143672	-0.33335	0	0	-0.270965	-0.226223	-0.399226	0.0920874	-0.309248	0	0	-0.193913	0.227995	-0.215682	0.18989	-0.1411	0.645003	0.0165682	1.5708	0	0	0.0777022	-0.140557	0.252978	0.506673	1.5708	0	0
140.39	-0.534823	1.3943	-0.794941	0.705404	1.86031	0.934356	-0.273733	0.0448612	-0.24492	0.140497	-0.333554	0	0	-0.267555	-0.229623	-0.391427	0.0901348	-0.306933	0	0	-0.193815	0.229926	-0.209411	0.196295	-0.139487	0.651563	0.0130712	1.5708	0	0	0.082384	-0.137015	0.243711	0.501314	1.5708	0	0
140.4	-0.535082	1.39495	-0.794938	0.704983	1.86075	0.934286	-0.274111	0.0454814	-0.240867	0.13657	-0.3342	0	0	-0.265938	-0.22939	-0.387386	0.0908638	-0.305795	0	0	-0.193852	0.229173	-0.20634	0.201389	-0.139131	0.658943	0.0104583	1.5708	0	0	0.0862038	-0.132802	0.236468	0.495079	1.5708	0	0
